<svg xmlns="http://www.w3.org/2000/svg" version="1.0" width="1200.000000pt" height="1200.000000pt" viewBox="0 0 1200.000000 1200.000000" preserveAspectRatio="xMidYMid meet">

<g transform="translate(0.000000,1200.000000) scale(0.100000,-0.100000)" fill="#000000" stroke="none">
<path d="M1280 6000 l0 -4720 4720 0 4720 0 0 4720 0 4720 -4720 0 -4720 0 0 -4720z m9220 0 l0 -4500 -4500 0 -4500 0 0 4500 0 4500 4500 0 4500 0 0 -4500z"/>
<path d="M6689 7483 c-127 -119 -287 -466 -344 -749 -14 -67 -25 -144 -25 -172 0 -45 4 -55 39 -91 l39 -41 13 37 c56 173 292 523 353 523 17 0 18 -6 13 -49 -17 -143 -179 -413 -301 -503 -25 -18 -45 -37 -46 -41 0 -11 64 -37 92 -37 133 0 355 305 375 515 5 54 2 69 -18 104 -13 23 -38 51 -56 62 -29 18 -37 19 -70 8 -51 -17 -165 -134 -241 -248 -68 -101 -70 -95 -20 49 74 215 186 405 313 531 l76 77 -58 36 c-31 20 -63 36 -71 36 -7 0 -35 -21 -63 -47z"/>
<path d="M4435 7400 c-33 -4 -151 -8 -261 -9 -174 -1 -203 -3 -208 -17 -19 -49 13 -108 65 -119 28 -6 30 -9 24 -38 -4 -18 -25 -87 -47 -154 l-40 -123 -42 -11 c-72 -18 -76 -20 -76 -34 0 -13 40 -50 62 -57 14 -5 -1 -50 -88 -258 l-67 -161 30 -36 c60 -75 66 -76 185 -59 64 10 173 16 277 16 l171 0 0 30 c0 16 -7 48 -17 71 l-16 42 -96 -8 c-84 -6 -268 -34 -340 -52 -23 -6 -23 -4 -17 32 10 53 59 196 101 298 l36 84 102 13 c56 7 128 11 160 9 48 -3 58 -1 63 14 9 27 -5 73 -28 93 -22 20 -111 25 -195 11 -51 -9 -53 -21 35 165 l59 125 49 8 c27 5 110 11 186 14 l136 6 -14 40 c-25 73 -50 82 -189 65z"/>
<path d="M5472 7206 c-17 -20 -54 -74 -83 -121 l-52 -85 -62 0 -62 0 6 -32 c6 -30 10 -33 47 -36 l40 -3 -47 -142 c-26 -78 -53 -177 -60 -219 -11 -69 -11 -82 4 -113 19 -40 90 -90 143 -100 27 -5 46 -1 77 15 54 28 96 62 96 78 1 15 2 16 -44 -8 -92 -47 -145 -32 -145 41 0 82 49 256 111 389 l30 66 75 11 c83 12 89 15 81 38 -5 11 -21 15 -62 15 -65 0 -66 -6 19 113 l55 77 -37 19 c-20 10 -51 22 -68 25 -27 6 -35 2 -62 -28z"/>
<path d="M4875 7081 c-36 -21 -79 -70 -102 -114 -20 -39 -20 -114 0 -192 8 -33 18 -76 21 -95 l6 -36 -57 -12 c-103 -22 -189 -100 -215 -195 -15 -59 -5 -90 44 -130 30 -24 47 -30 81 -30 47 1 130 37 159 70 31 34 59 111 63 178 2 36 7 70 10 75 3 4 23 11 45 15 61 10 53 35 -11 35 l-52 0 7 73 c10 103 24 146 56 179 31 31 61 36 80 13 10 -12 10 -24 0 -60 -7 -25 -10 -48 -7 -52 25 -24 76 64 77 131 0 35 -7 46 -63 103 -70 69 -91 76 -142 44z m-75 -533 c0 -57 -80 -176 -140 -208 -16 -9 -22 -6 -36 15 -14 22 -15 29 -3 57 17 40 63 93 113 130 47 34 66 36 66 6z"/>
<path d="M7879 7028 c-72 -99 -164 -315 -199 -471 -22 -93 -22 -99 -6 -141 22 -57 40 -73 62 -55 9 7 48 56 87 109 104 140 273 310 310 310 3 0 -9 -35 -26 -77 -26 -65 -31 -92 -32 -161 0 -79 2 -85 28 -107 45 -40 92 -43 154 -10 30 15 52 33 50 39 -2 6 -24 11 -48 11 l-44 0 -3 45 c-2 24 2 65 8 90 16 64 94 223 131 264 25 29 28 38 20 55 -15 27 -51 51 -76 51 -71 0 -209 -114 -366 -301 -52 -61 -95 -106 -97 -101 -4 12 44 109 98 197 21 35 51 87 65 115 24 48 25 51 9 83 -19 37 -51 75 -76 88 -14 8 -24 1 -49 -33z"/>
<path d="M5975 7030 c-183 -71 -342 -374 -281 -534 15 -39 83 -116 104 -116 4 0 24 -4 45 -9 33 -8 47 -5 105 24 81 41 203 158 185 176 -9 9 -26 -1 -72 -43 -98 -91 -187 -122 -226 -78 -10 11 -20 41 -23 68 l-4 48 93 46 c131 63 190 112 228 190 17 35 34 87 38 116 5 46 3 56 -18 79 -26 28 -77 53 -106 52 -10 0 -41 -9 -68 -19z m105 -132 c0 -61 -78 -165 -171 -227 -91 -61 -97 -55 -49 46 33 71 107 156 160 183 46 25 60 25 60 -2z"/>
<path d="M7252 6999 c-105 -52 -237 -253 -262 -397 -19 -114 14 -200 81 -217 59 -15 173 83 253 216 21 35 35 55 31 44 -19 -57 -35 -134 -35 -173 0 -33 6 -49 26 -69 22 -22 31 -24 66 -19 57 9 59 12 41 53 -26 65 -2 188 73 371 19 45 34 87 34 92 0 11 -36 35 -66 44 -19 6 -30 -9 -94 -126 -128 -233 -228 -363 -274 -356 -19 3 -21 9 -19 58 4 86 68 207 157 296 51 51 84 76 114 85 23 6 42 17 42 22 0 17 -87 97 -106 97 -11 0 -38 -10 -62 -21z"/>
<path d="M5160 5802 c-48 -24 -60 -53 -60 -149 l0 -83 900 0 900 0 0 80 c0 54 -5 91 -16 111 -31 61 -7 59 -886 59 -745 0 -806 -1 -838 -18z"/>
<path d="M5100 4876 c0 -545 2 -616 16 -630 14 -14 108 -16 884 -16 776 0 870 2 884 16 14 14 16 85 16 630 l0 614 -900 0 -900 0 0 -614z m645 242 c39 -40 90 -94 115 -121 l44 -47 -119 -120 c-66 -66 -128 -123 -138 -126 -22 -7 -47 12 -47 36 0 10 45 61 101 114 l101 96 -96 102 c-96 102 -111 129 -79 147 24 13 37 4 118 -81z m682 -364 c3 -9 2 -24 -4 -33 -9 -14 -43 -16 -260 -19 -268 -3 -283 0 -268 48 6 19 13 20 266 20 231 0 260 -2 266 -16z"/>
</g>
</svg>